<svg xmlns="http://www.w3.org/2000/svg" viewBox="0 0 276.71 52.8"><defs><style>.cls-1{fill:#8cc2d7;}.cls-2{fill:#c3dfe9;}.cls-3{fill:#b1d5e4;}.cls-4{fill:#a2ccde;}.cls-5{fill:#d5e9f2;}.cls-6{fill:#3ca5c2;}.cls-7{fill:#5aaeca;}.cls-8{fill:#77b8d0;}.cls-9{fill:#0097ba;}.cls-10{fill:#008aaf;}.cls-11{fill:#a8a8a7;}.cls-12{fill:#575756;}</style></defs><g id="Layer_2" data-name="Layer 2"><g id="Layer_1-2" data-name="Layer 1"><path class="cls-1" d="M265.18,25.61a5.71,5.71,0,1,1-6.45-4.86A5.7,5.7,0,0,1,265.18,25.61Z"/><path class="cls-2" d="M263.5,3a3.48,3.48,0,1,1-3.93-3A3.49,3.49,0,0,1,263.5,3Z"/><path class="cls-3" d="M254.19,7.17a4.29,4.29,0,1,1-4.84-3.66A4.29,4.29,0,0,1,254.19,7.17Z"/><path class="cls-4" d="M252.25,19a4.94,4.94,0,1,1-5.59-4.2A4.94,4.94,0,0,1,252.25,19Z"/><path class="cls-5" d="M271.87,5.9a2.61,2.61,0,1,1-2.95-2.23A2.62,2.62,0,0,1,271.87,5.9Z"/><path class="cls-6" d="M255.55,49.79a3.49,3.49,0,1,1,3.94,3A3.48,3.48,0,0,1,255.55,49.79Z"/><path class="cls-7" d="M264.86,45.63a4.29,4.29,0,1,1,4.85,3.66A4.29,4.29,0,0,1,264.86,45.63Z"/><path class="cls-8" d="M266.87,33.77a4.94,4.94,0,1,1,5.58,4.2A4.93,4.93,0,0,1,266.87,33.77Z"/><path class="cls-9" d="M247.18,46.91a2.62,2.62,0,1,1,3,2.22A2.63,2.63,0,0,1,247.18,46.91Z"/><path class="cls-10" d="M243.06,40.31A2,2,0,1,1,245.28,42,2,2,0,0,1,243.06,40.31Z"/><path class="cls-11" d="M67.15,11.83a1.55,1.55,0,0,0-1.55,1.55v8A1.56,1.56,0,0,0,67.15,23h8a1.56,1.56,0,0,0,1.55-1.55v-8a1.55,1.55,0,0,0-1.55-1.55ZM68,13.3h6.44c.61,0,.75.13.75.75v6.69c0,.62-.13.75-.73.75H68c-.64,0-.79-.13-.79-.75V14.05C67.19,13.43,67.33,13.3,68,13.3Z"/><path class="cls-11" d="M56.3,12.4v10a.79.79,0,0,0,.79.79.8.8,0,0,0,.8-.79v-10a.8.8,0,0,0-.8-.79A.79.79,0,0,0,56.3,12.4Z"/><path class="cls-11" d="M11.12,16.28V13.74c0-1.34-.57-1.91-1.91-1.91h-9a.23.23,0,0,0-.25.25V22.39a.79.79,0,0,0,.79.79.8.8,0,0,0,.8-.79V13.48c0-.15,0-.18.18-.18h7c.58,0,.74.15.74.75V16c0,.61-.14.74-.74.74H3.62a.75.75,0,0,0-.79.74.74.74,0,0,0,.79.73H6.26c.07,0,.12,0,.19.12l3.37,4.57a.8.8,0,0,0,1.28-1L8.5,18.39s-.18-.2.05-.2h.66C10.55,18.19,11.12,17.62,11.12,16.28Z"/><path class="cls-11" d="M48.3,16.6H44.89a.74.74,0,0,0-.79.73.74.74,0,0,0,.79.74h1.82a.22.22,0,0,1,.25.25v2.43c0,.61-.14.74-.74.74H39.76c-.63,0-.75-.16-.75-.75V14.05c0-.62.14-.75.75-.75h8a.74.74,0,1,0,0-1.47H39.34c-1.34,0-1.92.57-1.92,1.91v7.31c0,1.34.58,1.91,1.92,1.91h7.3c1.34,0,1.91-.57,1.91-1.91v-4.2C48.55,16.69,48.52,16.6,48.3,16.6Z"/><path class="cls-11" d="M87.57,12.32a.8.8,0,0,0-.72-.44H85a.78.78,0,0,0-.76.79v9.72a.8.8,0,1,0,1.59,0V13.45c0-.19,0-.22.19-.22s.19,0,.3.19c.49.83,5.41,9,5.45,9.1a.79.79,0,0,0,.72.45h1.89a.78.78,0,0,0,.76-.79V12.46a.79.79,0,1,0-1.58,0v8.93c0,.2,0,.23-.19.23s-.2,0-.3-.2C92.53,20.59,87.61,12.39,87.57,12.32Z"/><path class="cls-11" d="M18.86,11.81a.23.23,0,0,0-.25.25v1a.23.23,0,0,0,.25.25h9.77a.75.75,0,0,0,.8-.74.77.77,0,0,0-.8-.76Z"/><path class="cls-11" d="M18.86,16.67a.22.22,0,0,0-.25.24v5.81a.24.24,0,0,0,.25.25h9.77a.76.76,0,0,0,.8-.75.75.75,0,0,0-.8-.74H20.4c-.15,0-.18,0-.18-.18v-3c0-.14,0-.19.18-.19h7.86a.72.72,0,0,0,.8-.7.74.74,0,0,0-.8-.73Z"/><path class="cls-12" d="M168,12.2V22.51c0,.19.1.24.25.24H176a.74.74,0,1,0,0-1.47H169.8c-.15,0-.18,0-.18-.18V12.2a.8.8,0,1,0-1.59,0Z"/><path class="cls-12" d="M108.17,11.62a1.56,1.56,0,0,0-1.55,1.55v3.27A1.55,1.55,0,0,0,108.17,18h7c.61,0,.75.17.75.74v1.81c0,.58-.13.75-.75.75h-7.77a.74.74,0,1,0,0,1.47H116a1.55,1.55,0,0,0,1.55-1.55V17.94A1.56,1.56,0,0,0,116,16.39h-7c-.61,0-.75-.17-.75-.74V13.83c0-.57.13-.74.75-.74h7.77a.75.75,0,0,0,.8-.73.75.75,0,0,0-.8-.74Z"/><path class="cls-12" d="M125.19,12.2v9a1.47,1.47,0,0,1-.35.81h0l-1.46,1.83a.79.79,0,0,0,.12,1.11.81.81,0,0,0,1.13-.12L126.07,23l0,0a3,3,0,0,0,.72-1.84v-9a.79.79,0,1,0-1.58,0Z"/><path class="cls-12" d="M155.55,12.2V22.51c0,.19.1.24.25.24h7.69a.74.74,0,1,0,0-1.47h-6.17c-.15,0-.18,0-.18-.18V12.2a.8.8,0,1,0-1.59,0Z"/><path class="cls-12" d="M201,12.11a.8.8,0,0,0-.71-.44h-1.89a.79.79,0,0,0-.77.79v9.72a.79.79,0,0,0,.79.8.8.8,0,0,0,.8-.8V13.25c0-.2,0-.23.18-.23s.19,0,.3.19c.49.83,5.41,9,5.45,9.11a.8.8,0,0,0,.72.44h1.89a.79.79,0,0,0,.77-.79V12.25a.8.8,0,1,0-1.59,0v8.94c0,.19,0,.22-.19.22s-.19,0-.3-.2C205.92,20.39,201,12.18,201,12.11Z"/><path class="cls-12" d="M226.83,15.21a3.21,3.21,0,0,0-3.5-3.49H216a.17.17,0,0,0-.19.19V22.57a.17.17,0,0,0,.19.18h7.38a3.16,3.16,0,0,0,3.5-3.49Zm-1.6,4A2,2,0,0,1,223,21.32h-5.49c-.11,0-.13,0-.13-.12V13.37c0-.09,0-.13.13-.13H223a2,2,0,0,1,2.21,2.1Z"/><path class="cls-12" d="M140.24,11.72a1.82,1.82,0,0,0-1.81,1l-5.64,9.06a.78.78,0,1,0,1.33.83l5.71-9.19c.13-.17.17-.23.41-.24h7.68c.43,0,.79-.23.79-.67a.8.8,0,0,0-.79-.79Z"/><path class="cls-12" d="M140.34,16.49a.22.22,0,0,0-.25.24v5.73a.23.23,0,0,0,.25.25h7.58a.76.76,0,0,0,.79-.74.74.74,0,0,0-.79-.72h-6.06c-.15,0-.18-.05-.18-.19v-3c0-.15,0-.19.18-.19h5.68a.71.71,0,0,0,.79-.7.73.73,0,0,0-.79-.72Z"/><path class="cls-12" d="M192.09,21.85l-4.72-9.58a1,1,0,0,0-.92-.59h-1.2a1,1,0,0,0-.94.59l-4.7,9.58a.8.8,0,0,0,.36,1.06.78.78,0,0,0,1.06-.36s4.53-9.25,4.58-9.33.09-.18.18-.18h.12c.1,0,.15.12.18.18s1.29,2.63,2.49,5c0,.06.06.19-.09.19h-3.81a.73.73,0,1,0,0,1.46h4.57a.18.18,0,0,1,.2.12l1.22,2.51a.79.79,0,1,0,1.42-.7Z"/><path class="cls-12" d="M46.52,36.63l3.77,6.31c0,.06.06.1.08.11s.06,0,.13,0,.08,0,.1,0,0-.06,0-.13v-6.2a.54.54,0,0,1,.16-.4.5.5,0,0,1,.39-.16.53.53,0,0,1,.39.16.58.58,0,0,1,.16.4v6.74a.56.56,0,0,1-.15.36.45.45,0,0,1-.39.17H49.88a.58.58,0,0,1-.26-.06.59.59,0,0,1-.23-.24l-3.77-6.3c0-.06-.06-.1-.08-.11a.31.31,0,0,0-.13,0,.13.13,0,0,0-.1,0s0,.05,0,.12v6.2a.55.55,0,0,1-.16.4.53.53,0,0,1-.39.16.57.57,0,0,1-.39-.16.59.59,0,0,1-.16-.4V36.87a.59.59,0,0,1,.15-.37.46.46,0,0,1,.39-.18H46a.44.44,0,0,1,.26.07A.59.59,0,0,1,46.52,36.63Z"/><path class="cls-12" d="M62.15,36.32a.57.57,0,0,1,.15.4.56.56,0,0,1-.15.39c-2,2.38-2.95,3.57-3,3.57a.15.15,0,0,0,0,.11V43.6A.57.57,0,0,1,59,44a.53.53,0,0,1-.39.16.5.5,0,0,1-.39-.16.53.53,0,0,1-.16-.39V40.79a.06.06,0,0,0,0,0,.13.13,0,0,0,0-.07l-2.91-3.57a.53.53,0,0,1-.16-.39.54.54,0,0,1,.16-.4.5.5,0,0,1,.39-.16.54.54,0,0,1,.4.16l2.66,3.27c.05,0,.08,0,.11,0l2.71-3.27a.5.5,0,0,1,.39-.16A.55.55,0,0,1,62.15,36.32Z"/><path class="cls-12" d="M66.64,36.72V43.6a.53.53,0,0,1-.16.39.53.53,0,0,1-.76,0,.53.53,0,0,1-.16-.39V36.72a.53.53,0,0,1,.16-.39.53.53,0,0,1,.76,0A.53.53,0,0,1,66.64,36.72Zm5.9-.39a.54.54,0,0,1,.15.38.57.57,0,0,1-.16.37l-2.87,3s0,.06,0,.1l3,3.11a.53.53,0,0,1,.16.38.48.48,0,0,1-.16.39.52.52,0,0,1-.38.15.54.54,0,0,1-.38-.15l-3.26-3.34-.08-.07a.21.21,0,0,0-.12,0H68a.58.58,0,0,1-.38-.13.44.44,0,0,1-.16-.36.47.47,0,0,1,.16-.37.58.58,0,0,1,.38-.13h.51a.28.28,0,0,0,.2-.1l3-3.15a.55.55,0,0,1,.38-.15A.49.49,0,0,1,72.54,36.33Z"/><path class="cls-12" d="M77.36,44a1,1,0,0,1-.76-.31,1.06,1.06,0,0,1-.3-.76V37.39a1,1,0,0,1,.08-.42,1.06,1.06,0,0,1,.22-.33,1.16,1.16,0,0,1,.34-.24,1.2,1.2,0,0,1,.42-.08h5.56a1.15,1.15,0,0,1,.41.08,1.16,1.16,0,0,1,.34.24,1.09,1.09,0,0,1,.23.33,1.16,1.16,0,0,1,.08.42v5.54a1.11,1.11,0,0,1-.08.41,1.13,1.13,0,0,1-.23.34.82.82,0,0,1-.34.23,1,1,0,0,1-.41.08Zm1.43-1.77a.54.54,0,0,1-.37.16.44.44,0,0,1-.36-.13.4.4,0,0,1-.12-.35.52.52,0,0,1,.17-.37l4.08-4.09a.08.08,0,0,0,0-.07s0,0-.09,0H77.92a.63.63,0,0,0-.43.1.65.65,0,0,0-.1.42v4.61a.6.6,0,0,0,.11.42.7.7,0,0,0,.43.09l4.43,0a.67.67,0,0,0,.42-.1.61.61,0,0,0,.1-.42V38.32c0-.08,0-.12,0-.12l-.07,0Z"/><path class="cls-12" d="M95.85,41.38v1.31a1.41,1.41,0,0,1-.3,1,1.36,1.36,0,0,1-1,.3H88.65c-.12,0-.18-.05-.18-.17V36.5a.16.16,0,0,1,.18-.18h5.91a1.36,1.36,0,0,1,1,.31,1.39,1.39,0,0,1,.3,1v1.14a1.36,1.36,0,0,1-.3,1,1.32,1.32,0,0,1-1,.31,1.32,1.32,0,0,1,1,.31A1.37,1.37,0,0,1,95.85,41.38ZM91,40.57a.48.48,0,0,1-.36-.14.5.5,0,0,1,.36-.86h3.31a.6.6,0,0,0,.41-.1.63.63,0,0,0,.09-.41V37.84a.61.61,0,0,0-.1-.42.57.57,0,0,0-.4-.1H89.69a.1.1,0,0,0-.13.13v5.42a.1.1,0,0,0,.13.12h4.57a.62.62,0,0,0,.4-.1.58.58,0,0,0,.1-.41v-1.4a.63.63,0,0,0-.09-.41.66.66,0,0,0-.41-.1Z"/><path class="cls-12" d="M100.68,36.32a.5.5,0,0,1,.39-.16.52.52,0,0,1,.38.16.54.54,0,0,1,.17.39v6.9a.5.5,0,0,1-.17.38.53.53,0,0,1-.38.17.51.51,0,0,1-.39-.17.49.49,0,0,1-.16-.38v-6.9A.53.53,0,0,1,100.68,36.32Z"/><path class="cls-12" d="M108.6,36.63l3.77,6.31a.27.27,0,0,0,.08.11s.06,0,.12,0,.09,0,.11,0,0-.06,0-.13v-6.2a.54.54,0,0,1,.16-.4.49.49,0,0,1,.38-.16.5.5,0,0,1,.39.16.54.54,0,0,1,.16.4v6.74a.61.61,0,0,1-.14.36.48.48,0,0,1-.39.17H112a.58.58,0,0,1-.26-.06.59.59,0,0,1-.23-.24l-3.77-6.3-.08-.11a.31.31,0,0,0-.13,0s-.09,0-.1,0,0,.05,0,.12v6.2a.59.59,0,0,1-.16.4.56.56,0,0,1-.78,0,.55.55,0,0,1-.16-.4V36.87a.63.63,0,0,1,.14-.37.49.49,0,0,1,.4-.18h1.3a.45.45,0,0,1,.27.07A.66.66,0,0,1,108.6,36.63Z"/><path class="cls-12" d="M126,39.62c.07,0,.12,0,.13,0a.23.23,0,0,1,0,.13v2.88A1.13,1.13,0,0,1,124.81,44h-5.06a1.36,1.36,0,0,1-1-.31,1.33,1.33,0,0,1-.32-1v-5a1.32,1.32,0,0,1,.32-1,1.36,1.36,0,0,1,1-.32h5.82a.53.53,0,0,1,.39.15.44.44,0,0,1,.16.36.47.47,0,0,1-.16.37.56.56,0,0,1-.39.14h-5.51a.61.61,0,0,0-.42.1.66.66,0,0,0-.09.42v4.6a.67.67,0,0,0,.09.41c.06.07.2.1.42.1h4.45a.68.68,0,0,0,.42-.09.67.67,0,0,0,.1-.42V40.81a.16.16,0,0,0-.18-.18H123.6a.6.6,0,0,1-.39-.14.45.45,0,0,1-.17-.36.45.45,0,0,1,.17-.37.6.6,0,0,1,.39-.14Z"/><path class="cls-12" d="M141.94,36.32a.55.55,0,0,1,.38.15.48.48,0,0,1,0,.72.54.54,0,0,1-.38.14H135.8a.15.15,0,0,1-.17-.17V36.5c0-.12.06-.18.17-.18Zm-5.21,7.5c0,.11-.06.16-.18.16h-.75c-.11,0-.17,0-.17-.16v-4c0-.12.06-.18.17-.18h5.87a.56.56,0,0,1,.39.14.51.51,0,0,1,0,.74.52.52,0,0,1-.39.14h-4.82c-.08,0-.12,0-.12.14Z"/><path class="cls-12" d="M157.35,36.32a.56.56,0,0,1,.39.15.46.46,0,0,1,.15.36.5.5,0,0,1-.15.37.6.6,0,0,1-.39.14h-5.16a.56.56,0,0,0-.41.11.55.55,0,0,0-.1.4l0,1.23a.6.6,0,0,0,.1.41.59.59,0,0,0,.42.11h4.63a1,1,0,0,1,.76.31,1,1,0,0,1,.32.75v2.26a1,1,0,0,1-.32.76,1,1,0,0,1-.76.31h-5.7a.55.55,0,0,1-.39-.14.48.48,0,0,1-.15-.37.46.46,0,0,1,.15-.36.56.56,0,0,1,.39-.15h5.16c.21,0,.35,0,.41-.1a.62.62,0,0,0,.1-.41V41.21a.6.6,0,0,0-.1-.41c-.06-.07-.2-.1-.41-.1h-4.64a1,1,0,0,1-.41-.09,1.08,1.08,0,0,1-.57-.57.91.91,0,0,1-.08-.41l0-2.23a1,1,0,0,1,.31-.76,1,1,0,0,1,.76-.32Z"/><path class="cls-12" d="M168,36.32a.57.57,0,0,1,.15.4.56.56,0,0,1-.15.39c-2,2.38-2.95,3.57-3,3.57a.15.15,0,0,0,0,.11V43.6a.57.57,0,0,1-.16.39.55.55,0,0,1-.94-.39V40.75l0-.07s-1-1.19-2.92-3.57a.53.53,0,0,1-.16-.39.54.54,0,0,1,.16-.4.5.5,0,0,1,.39-.16.54.54,0,0,1,.4.16c1.77,2.17,2.66,3.26,2.66,3.27s.08,0,.11,0l2.71-3.27a.5.5,0,0,1,.39-.16A.54.54,0,0,1,168,36.32Z"/><path class="cls-12" d="M178.94,39.62c.07,0,.12,0,.13,0a.23.23,0,0,1,0,.13v2.88A1.13,1.13,0,0,1,177.79,44h-5.06a1.36,1.36,0,0,1-1-.31,1.33,1.33,0,0,1-.32-1v-5a1.32,1.32,0,0,1,.32-1,1.36,1.36,0,0,1,1-.32h5.82a.53.53,0,0,1,.39.15.44.44,0,0,1,.16.36.47.47,0,0,1-.16.37.56.56,0,0,1-.39.14H173a.61.61,0,0,0-.42.1.66.66,0,0,0-.09.42v4.6a.67.67,0,0,0,.09.41c.06.07.2.1.42.1h4.45a.68.68,0,0,0,.42-.09.67.67,0,0,0,.1-.42V40.81a.16.16,0,0,0-.18-.18h-1.25a.6.6,0,0,1-.39-.14.45.45,0,0,1-.17-.36.45.45,0,0,1,.17-.37.6.6,0,0,1,.39-.14Z"/><path class="cls-12" d="M190.25,36.32a.55.55,0,0,1,.38.15.49.49,0,0,1,.17.38.48.48,0,0,1-.17.37.58.58,0,0,1-.38.13h-6.39c-.12,0-.18-.06-.18-.17V36.5a.16.16,0,0,1,.18-.18ZM190,39.68a.56.56,0,0,1,.39.13.46.46,0,0,1,.16.37.42.42,0,0,1-.16.35.56.56,0,0,1-.39.13h-5.07c-.08,0-.12.05-.12.13v2.05c0,.09,0,.13.12.13h5.34a.59.59,0,0,1,.38.14.49.49,0,0,1,0,.74.54.54,0,0,1-.38.14h-6.39c-.12,0-.18-.05-.18-.17v-4c0-.11.06-.16.18-.16Z"/><path class="cls-12" d="M201.74,36.16a.53.53,0,0,1,.39.16.5.5,0,0,1,.16.39v6.9a.55.55,0,0,1-.55.55.49.49,0,0,1-.38-.16.53.53,0,0,1-.16-.39V40.73c0-.07,0-.11-.07-.12h-4.89s-.05,0-.05.12v2.88a.55.55,0,0,1-.94.39.57.57,0,0,1-.16-.39v-6.9a.53.53,0,0,1,.16-.39.56.56,0,0,1,.78,0,.5.5,0,0,1,.16.39v2.77c0,.07,0,.11.05.12h4.89s.07-.05.07-.12V36.71a.5.5,0,0,1,.16-.39A.49.49,0,0,1,201.74,36.16Z"/><path class="cls-12" d="M213.33,36.74a.54.54,0,0,1,.16-.39.55.55,0,0,1,.39-.16.57.57,0,0,1,.38.16.56.56,0,0,1,.17.39v6.18A1.08,1.08,0,0,1,213.35,44h-5.46a1,1,0,0,1-.41-.08,1.08,1.08,0,0,1-.34-.23,1.36,1.36,0,0,1-.23-.34,1.16,1.16,0,0,1-.08-.42V36.74a.54.54,0,0,1,.16-.39.56.56,0,0,1,.78,0,.59.59,0,0,1,.16.39v5.72a.56.56,0,0,0,.11.42.74.74,0,0,0,.44.09h4.34a.65.65,0,0,0,.41-.09.68.68,0,0,0,.09-.42Z"/><path class="cls-12" d="M225.35,36.32a.53.53,0,0,1,.39.15.44.44,0,0,1,.16.36.47.47,0,0,1-.16.37.56.56,0,0,1-.39.14H220.2a.56.56,0,0,0-.41.11.55.55,0,0,0-.1.4l0,1.23a.6.6,0,0,0,.1.41.56.56,0,0,0,.41.11h4.64a1,1,0,0,1,.76.31,1,1,0,0,1,.31.75v2.26A1.06,1.06,0,0,1,224.86,44h-5.7a.55.55,0,0,1-.39-.14.49.49,0,0,1-.16-.37.47.47,0,0,1,.16-.36.56.56,0,0,1,.39-.15h5.15a.61.61,0,0,0,.42-.1.68.68,0,0,0,.1-.41V41.21a.66.66,0,0,0-.1-.41.61.61,0,0,0-.42-.1h-4.63a1,1,0,0,1-.42-.09,1.08,1.08,0,0,1-.34-.23,1.11,1.11,0,0,1-.22-.34.91.91,0,0,1-.09-.41l0-2.23a1,1,0,0,1,.31-.76,1,1,0,0,1,.75-.32Z"/><text/></g></g></svg>